<svg width="500" height="500" viewBox="0 0 500 500" fill="none" xmlns="http://www.w3.org/2000/svg">
<g clip-path="url(#clip0_301_6)">
<circle cx="250" cy="250" r="250" fill="#DEA584"/>
<path d="M127.355 368.787C121.375 368.787 116.19 366.592 111.799 362.201C107.408 357.81 105.213 352.625 105.213 346.645V166.355C105.213 160.375 107.408 155.19 111.799 150.799C116.19 146.408 121.375 144.212 127.355 144.212H372.646C378.625 144.212 383.811 146.408 388.201 150.799C392.592 155.19 394.788 160.375 394.788 166.355V346.645C394.788 352.625 392.592 357.81 388.201 362.201C383.811 366.592 378.625 368.787 372.646 368.787H127.355ZM201.9 321.316H298.1C301.258 321.316 303.859 320.289 305.902 318.236C307.945 316.182 308.967 313.587 308.967 310.45C308.967 307.313 307.945 304.718 305.902 302.664C303.859 300.61 301.258 299.584 298.1 299.584H201.9C198.743 299.584 196.142 300.61 194.099 302.664C192.056 304.718 191.034 307.313 191.034 310.45C191.034 313.587 192.056 316.182 194.099 318.236C196.142 320.289 198.743 321.316 201.9 321.316ZM152.684 274.191H181.892V245.309H152.684V274.191ZM207.934 274.191H237.142V245.309H207.934V274.191ZM262.859 274.191H292.067V245.309H262.859V274.191ZM318.109 274.191H347.317V245.309H318.109V274.191ZM152.684 219.916H181.892V191.359H152.684V219.916ZM207.934 219.916H237.142V191.359H207.934V219.916ZM262.859 219.916H292.067V191.359H262.859V219.916ZM318.109 219.916H347.317V191.359H318.109V219.916Z" fill="#393939"/>
</g>
<defs>
<clipPath id="clip0_301_6">
<rect width="500" height="500" fill="white"/>
</clipPath>
</defs>
</svg>
