<svg viewBox="0 0 400 400" xmlns="http://www.w3.org/2000/svg">
<circle cx="200" cy="200" r="200" fill="#324D5C"/>
<path d="M136.444 221.556C123.558 225.213 115.104 231.625 109.535 238.032C114.869 233.364 122.014 229.08 131.652 226.348C141.51 223.554 149.92 223.574 156.869 224.915V219.481C150.941 218.939 144.145 219.371 136.444 221.556ZM108.946 175.876L61.09 188.484C61.09 188.484 61.962 189.716 63.577 191.36L104.153 180.668C104.153 180.668 103.578 188.077 98.585 194.705C108.03 187.559 108.946 175.876 108.946 175.876ZM149.005 288.347C81.658 306.486 46.027 228.438 35.24 187.928C30.256 169.229 28.08 155.067 27.5 145.928C27.4449 145.101 27.4563 144.271 27.534 143.446C24.04 143.657 22.367 145.473 22.708 150.721C23.288 159.855 25.463 174.016 30.448 192.721C41.23 233.225 76.866 311.273 144.213 293.134C158.872 289.185 169.885 281.992 178.152 272.81C170.532 279.692 160.995 285.112 149.005 288.347ZM161.661 128.11V132.903H188.077C187.535 131.206 186.989 129.677 186.447 128.11H161.661Z" fill="#2D4552"/>
<path d="M193.981 167.584C205.861 170.958 212.144 179.287 215.465 186.658L228.711 190.42C228.711 190.42 226.904 164.623 203.57 157.995C181.741 151.793 168.308 170.124 166.674 172.496C173.024 167.972 182.297 164.268 193.981 167.584ZM299.422 186.777C277.573 180.547 264.145 198.916 262.535 201.255C268.89 196.736 278.158 193.031 289.837 196.362C301.698 199.741 307.976 208.06 311.307 215.436L324.572 219.212C324.572 219.212 322.736 193.41 299.422 186.777ZM286.262 254.795L176.072 223.99C176.072 223.99 177.265 230.038 181.842 237.869L274.617 263.805C282.255 259.386 286.262 254.795 286.262 254.795ZM209.867 321.102C122.618 297.71 133.166 186.543 147.284 133.865C153.097 112.156 159.073 96.02 164.029 85.204C161.072 84.595 158.623 86.153 156.203 91.074C150.941 101.747 144.212 119.124 137.7 143.45C123.586 196.127 113.038 307.29 200.283 330.682C241.406 341.699 273.442 324.955 297.323 298.659C274.655 319.19 245.714 330.701 209.867 321.102Z" fill="#2D4552"/>
<path d="M161.661 262.296V239.863L99.332 257.537C99.332 257.537 103.938 230.777 136.444 221.556C146.302 218.762 154.713 218.781 161.661 220.123V128.11H192.869C189.471 117.61 186.184 109.526 183.423 103.909C178.856 94.612 174.174 100.775 163.545 109.665C156.059 115.919 137.139 129.261 108.668 136.933C80.197 144.61 57.179 142.574 47.575 140.911C33.96 138.562 26.839 135.572 27.505 145.928C28.085 155.062 30.261 169.224 35.245 187.928C46.027 228.433 81.663 306.481 149.01 288.342C166.602 283.602 179.019 274.233 187.626 262.291H161.661V262.296ZM61.085 188.484L108.946 175.876C108.946 175.876 107.551 194.288 89.609 199.018C71.661 203.743 61.085 188.484 61.085 188.484Z" fill="#E2574C"/>
<path d="M341.786 129.174C329.345 131.355 299.498 134.072 262.612 124.185C225.716 114.304 201.236 97.022 191.537 88.899C177.788 77.383 171.74 69.38 165.788 81.486C160.526 92.163 153.797 109.54 147.284 133.866C133.171 186.543 122.623 297.706 209.867 321.098C297.093 344.47 343.53 242.92 357.644 190.238C364.157 165.917 367.013 147.5 367.799 135.625C368.695 122.173 359.455 126.078 341.786 129.174ZM166.497 172.756C166.497 172.756 180.246 151.372 203.565 158C226.899 164.628 228.706 190.425 228.706 190.425L166.497 172.756ZM223.42 268.713C182.403 256.698 176.077 223.99 176.077 223.99L286.262 254.796C286.262 254.791 264.021 280.578 223.42 268.713ZM262.377 201.495C262.377 201.495 276.107 180.126 299.422 186.773C322.736 193.411 324.572 219.208 324.572 219.208L262.377 201.495Z" fill="#2EAD33"/>
<path d="M139.88 246.04L99.332 257.532C99.332 257.532 103.737 232.44 133.607 222.496L110.647 136.33L108.663 136.933C80.192 144.611 57.174 142.574 47.57 140.911C33.955 138.563 26.834 135.572 27.5 145.929C28.08 155.063 30.256 169.224 35.24 187.929C46.022 228.433 81.658 306.481 149.005 288.342L150.989 287.719L139.88 246.04ZM61.085 188.485L108.946 175.876C108.946 175.876 107.551 194.288 89.609 199.018C71.662 203.743 61.085 188.485 61.085 188.485Z" fill="#D65348"/>
<path d="M225.27 269.163L223.415 268.712C182.398 256.698 176.072 223.99 176.072 223.99L232.89 239.872L262.971 124.281L262.607 124.185C225.711 114.304 201.232 97.022 191.532 88.899C177.783 77.383 171.735 69.38 165.783 81.486C160.526 92.163 153.797 109.54 147.284 133.866C133.171 186.543 122.623 297.706 209.867 321.097L211.655 321.5L225.27 269.163ZM166.497 172.756C166.497 172.756 180.246 151.372 203.565 158C226.899 164.628 228.706 190.425 228.706 190.425L166.497 172.756Z" fill="#1D8D22"/>
<path d="M141.946 245.451L131.072 248.537C133.641 263.019 138.169 276.917 145.276 289.195C146.513 288.922 147.74 288.687 149 288.342C152.302 287.451 155.364 286.348 158.312 285.145C150.371 273.361 145.118 259.789 141.946 245.451ZM137.7 143.451C132.112 164.307 127.113 194.326 128.489 224.436C130.952 223.367 133.554 222.371 136.444 221.551L138.457 221.101C136.003 188.939 141.308 156.165 147.284 133.866C148.701 128.578 150.217 123.316 151.832 118.085C149.2 119.768 146.513 121.363 143.776 122.867C141.573 129.675 139.547 136.538 137.7 143.451Z" fill="#C04B41"/>
</svg>

