<svg viewBox="0 0 500 500" xmlns="http://www.w3.org/2000/svg">
<circle cx="250" cy="250" r="250" fill="#51917A"/>
<path d="M302.812 284.375C350.984 284.375 390 245.359 390 197.188C390 188.85 388.801 180.785 386.621 173.102C384.932 167.217 377.685 165.909 373.38 170.214L331.53 212.064C329.895 213.699 327.661 214.625 325.372 214.625H294.094C289.298 214.625 285.375 210.702 285.375 205.906V174.628C285.375 172.339 286.301 170.105 287.936 168.47L329.786 126.62C334.091 122.315 332.729 115.068 326.898 113.379C319.215 111.199 311.15 110 302.812 110C254.641 110 215.625 149.016 215.625 197.188C215.625 207.596 217.478 217.622 220.802 226.886L121.844 325.844C114.923 332.764 111 342.191 111 352C111 372.434 127.566 389 148 389C157.809 389 167.236 385.077 174.156 378.156L273.114 279.198C282.378 282.577 292.404 284.375 302.812 284.375ZM154.594 332.328C158.062 332.328 161.389 333.706 163.841 336.159C166.294 338.611 167.672 341.938 167.672 345.406C167.672 348.875 166.294 352.201 163.841 354.654C161.389 357.106 158.062 358.484 154.594 358.484C151.125 358.484 147.799 357.106 145.346 354.654C142.893 352.201 141.516 348.875 141.516 345.406C141.516 341.938 142.893 338.611 145.346 336.159C147.799 333.706 151.125 332.328 154.594 332.328Z" fill="#DCE9E4"/>
</svg>
