<svg width="470" height="470" viewBox="0 0 470 470" fill="none" xmlns="http://www.w3.org/2000/svg">
<circle cx="235" cy="235" r="235" fill="#68AF8D"/>
<path fill-rule="evenodd" clip-rule="evenodd" d="M234.957 167.528C234.955 156.984 237.422 146.585 242.162 137.166C246.901 127.747 253.781 119.568 262.251 113.287C270.72 107.005 280.543 102.795 290.933 100.993C301.323 99.1911 311.99 99.848 322.08 102.911C323.675 103.394 325.117 104.282 326.267 105.489C327.416 106.695 328.233 108.179 328.639 109.795C329.044 111.411 329.024 113.105 328.58 114.711C328.136 116.317 327.283 117.781 326.105 118.959L283.412 161.639C284.222 167.747 286.961 173.649 291.655 178.343C296.348 183.036 302.251 185.775 308.372 186.573L351.04 143.893C352.218 142.715 353.682 141.862 355.288 141.418C356.894 140.974 358.588 140.954 360.204 141.36C361.82 141.765 363.304 142.582 364.511 143.731C365.717 144.881 366.605 146.323 367.088 147.918C370.293 158.473 370.862 169.653 368.746 180.48C366.63 191.306 361.894 201.449 354.95 210.022C348.007 218.594 339.069 225.334 328.918 229.653C318.767 233.971 307.713 235.737 296.721 234.794C283.63 233.689 272.674 236.08 267.029 242.947L175.084 354.629C171.319 359.178 166.646 362.891 161.363 365.53C156.081 368.168 150.305 369.675 144.407 369.953C138.509 370.231 132.617 369.274 127.11 367.144C121.603 365.013 116.601 361.757 112.425 357.582C108.249 353.407 104.991 348.406 102.86 342.899C100.728 337.393 99.7699 331.502 100.047 325.603C100.323 319.705 101.829 313.929 104.466 308.646C107.104 303.363 110.816 298.69 115.364 294.924L227.036 202.968C233.89 197.31 236.295 186.367 235.189 173.276C235.031 171.364 234.954 169.447 234.957 167.528ZM133.586 326.66C133.586 324.102 134.602 321.649 136.411 319.841C138.22 318.032 140.673 317.016 143.231 317.016H143.334C145.892 317.016 148.345 318.032 150.153 319.841C151.962 321.649 152.978 324.102 152.978 326.66V326.763C152.978 329.321 151.962 331.774 150.153 333.583C148.345 335.391 145.892 336.408 143.334 336.408H143.231C140.673 336.408 138.22 335.391 136.411 333.583C134.602 331.774 133.586 329.321 133.586 326.763V326.66Z" fill="#F5F2F2"/>
</svg>
