<svg viewBox="0 0 48 48" xmlns="http://www.w3.org/2000/svg">
<circle cx="24" cy="24" r="24" fill="#60A5FA"/>
<path d="M12.95 34C12.43 34 11.975 33.8125 11.585 33.4375C11.195 33.0625 11 32.625 11 32.125V15.875C11 15.375 11.195 14.9375 11.585 14.5625C11.975 14.1875 12.43 14 12.95 14H35.05C35.57 14 36.025 14.1875 36.415 14.5625C36.805 14.9375 37 15.375 37 15.875V32.125C37 32.625 36.805 33.0625 36.415 33.4375C36.025 33.8125 35.57 34 35.05 34H12.95ZM12.95 32.125H35.05V18.5H12.95V32.125ZM18.15 29.875L16.785 28.5625L20.1325 25.3125L16.7525 22.0625L18.15 20.75L22.895 25.3125L18.15 29.875ZM24.325 30V28.125H31.475V30H24.325Z" fill="#023860"/>
</svg>
