<svg xmlns="http://www.w3.org/2000/svg" xml:space="preserve" style="enable-background:new 0 0 512 512" viewBox="0 0 512 512">
  <circle cx="256" cy="256" r="256" style="fill:#fc6f58"/>
  <path d="M276.22 292.071a17.24 17.24 0 0 0-15.57-9.84h-37.926V151.704h-34.478v130.527H150.32c-6.654 0-12.714 3.831-15.57 9.84s-1.998 13.128 2.205 18.285l55.165 67.722a17.234 17.234 0 0 0 26.73 0l55.165-67.722a17.235 17.235 0 0 0 2.205-18.285z" style="fill:#fff"/>
  <path d="m392.173 208.746-53.441-67.722a17.24 17.24 0 0 0-27.066 0l-53.441 67.722a17.239 17.239 0 0 0 13.534 27.918h36.202v130.527h34.478V236.665h36.202a17.24 17.24 0 0 0 13.532-27.919z" style="fill:#fff"/>
</svg>
