<svg xmlns="http://www.w3.org/2000/svg" xml:space="preserve" width="16" height="16" style="fill-rule:evenodd;clip-rule:evenodd;stroke-linejoin:round;stroke-miterlimit:1.41421" viewBox="0 0 120 120"><path d="M18.947 21.786h83.01v76.002h-83.01z" style="fill:#cb81da"/><path d="M57.357.021c-.241.018-1.09.071-1.876.125-10.418.706-21.059 4.485-29.752 10.56-9.971 6.978-17.556 16.672-21.854 27.921C1.847 43.961.596 49.545.114 55.495c-.152 1.85-.152 7.175 0 9.024.813 9.98 3.77 18.977 9.015 27.384 3.958 6.344 9.47 12.249 15.582 16.672 9.113 6.603 19.405 10.391 30.77 11.311 1.849.152 7.174.152 9.024 0 14.59-1.188 27.697-7.21 37.927-17.44 5.807-5.79 10.275-12.571 13.33-20.192 2.234-5.557 3.601-11.463 4.11-17.735.152-1.849.152-7.174 0-9.024-1.188-14.59-7.21-27.697-17.44-37.927-5.79-5.807-12.571-10.275-20.192-13.33C76.736 2.031 70.831.655 64.684.146c-1.171-.098-6.496-.188-7.327-.125ZM47.029 23.867c1.662.348 3.797 1.295 5.584 2.457 1.322.867 3.047 2.189 3.333 2.564.277.358.375 1.054.205 1.456-.161.376-.741.876-1.108.948-.572.107-.902-.027-1.813-.751-2.082-1.626-4.066-2.788-5.808-3.386-.929-.322-1.009-.34-2.216-.34-1.25 0-1.259 0-1.876.304-1.537.751-2.519 2.502-3.038 5.37-.196 1.134-.277 4.226-.143 5.852.134 1.59.474 3.994.813 5.655.143.706.277 1.305.295 1.323.018.018.268-.009.563-.054 1.903-.313 5.79-.679 9.113-.858l1.081-.053 1.162-1.448c2.653-3.287 6.603-7.469 9.202-9.729 4.941-4.298 9.444-6.898 13.206-7.621 1.17-.233 3.073-.206 4.02.044 4.119 1.09 6.245 5.227 5.852 11.41-.152 2.34-.5 4.583-.786 5.074-.491.849-1.689.992-2.394.286-.474-.473-.51-.777-.259-2.323.58-3.609.536-6.272-.143-8.309-.751-2.242-2.1-3.27-4.289-3.27-4.968 0-12.741 5.486-20.353 14.367-.643.741-1.17 1.394-1.17 1.429 0 .045 1.036.108 2.305.134 13.688.349 27.188 3.547 34.773 8.238 2.019 1.26 4.128 3.109 5.119 4.521.528.742 1.064 1.814 1.314 2.627.268.866.339 2.358.143 3.288-.688 3.332-3.851 6.263-9.087 8.443-1.09.446-1.268.491-1.688.375-.706-.188-1.162-.768-1.162-1.474 0-.778.411-1.233 1.474-1.653 1.859-.733 3.905-1.903 5.2-2.966 1.591-1.314 2.484-3.011 2.314-4.396-.232-2.01-2.055-4.164-5.155-6.094-5.95-3.698-15.912-6.45-26.884-7.442-3.189-.295-4.565-.366-7.96-.429l-3.19-.053-.751 1.018a102.238 102.238 0 0 0-6.146 9.417c-.965 1.671-.983 1.206.142 3.69 1.725 3.779 4.244 8.488 6.38 11.901 7.415 11.865 16.153 19.897 21.621 19.861 1.34-.009 2.189-.393 3.074-1.376 1.93-2.144 2.475-7.406 1.438-13.812-1.001-6.156-3.315-13.286-6.683-20.532-.679-1.465-.724-1.635-.598-2.1.312-1.161 1.778-1.563 2.564-.705.223.241 1.072 1.992 1.956 4.038 5.2 11.999 7.371 23.06 5.915 30.118-.456 2.243-1.385 4.155-2.609 5.379-5.611 5.611-16.109-.349-26.517-15.064-3.074-4.351-6.38-10.096-8.837-15.367l-.518-1.108-.715 1.465c-6.156 12.812-7.576 23.954-3.404 26.723.903.599 2.529.796 4.039.483 1.742-.358 3.958-1.349 6.129-2.725.652-.42 1.394-.894 1.653-1.054.42-.269.518-.295.982-.269.84.063 1.323.545 1.376 1.385.063.921-.143 1.135-2.519 2.636-6.996 4.414-12.741 4.342-15.546-.214-1.126-1.823-1.644-4.325-1.537-7.532.107-3.494.84-7.094 2.341-11.615 1.206-3.636 2.35-6.37 4.351-10.391.715-1.447 1.233-2.591 1.206-2.68-.027-.081-.33-.894-.688-1.805-.679-1.751-1.921-5.414-2.421-7.174-.232-.84-.331-1.046-.456-1.046-.303 0-3.243.715-4.538 1.108-4.486 1.34-7.443 2.859-9.391 4.798-.714.706-.929.983-1.25 1.635-.349.706-.385.858-.42 1.572-.027.626 0 .921.143 1.403.589 1.939 2.76 4.074 5.887 5.79 1.314.723 1.859 1.188 1.948 1.679.197 1.01-.5 1.85-1.519 1.85-.393 0-.598-.081-1.519-.599-4.395-2.439-6.977-5.119-7.826-8.112-.259-.903-.277-2.448-.045-3.395.197-.822.813-2.082 1.403-2.859 2.448-3.262 7.818-5.96 15.117-7.595.733-.161 1.349-.312 1.367-.339.027-.027-.054-.518-.179-1.099-.643-3.083-.965-5.986-.974-8.747 0-2.814.242-4.628.885-6.567 1.072-3.225 3.243-5.271 6.067-5.718.714-.107 2.251-.045 3.073.134Zm14.402 32.28c2.502.697 3.958 3.431 3.119 5.861-.411 1.198-1.198 2.073-2.395 2.672l-.759.375H59.046l-.786-.393c-2.145-1.054-3.136-3.386-2.377-5.602.483-1.385 1.733-2.555 3.154-2.939.661-.179 1.698-.161 2.394.026Z" style="fill:#2d323b;fill-rule:nonzero"/><path d="M48.289 47.651c-.17.009-.831.071-1.474.125-1.287.107-4.718.518-4.771.58-.09.081 1.152 4.039 1.938 6.183l.402 1.108.152-.259c.09-.134.554-.894 1.037-1.68a110.02 110.02 0 0 1 3.368-5.164l.679-.956-.509.018a9.4 9.4 0 0 0-.822.045Z" style="fill:#2d323b;fill-rule:nonzero"/></svg>
