<?xml version="1.0" encoding="utf-8"?>
<!-- Generator: Adobe Illustrator 26.1.0, SVG Export Plug-In . SVG Version: 6.00 Build 0)  -->
<svg version="1.1" id="Layer_1" xmlns="http://www.w3.org/2000/svg" xmlns:xlink="http://www.w3.org/1999/xlink" x="0px" y="0px"
	 viewBox="0 0 32 32" style="enable-background:new 0 0 32 32;" xml:space="preserve">
<style type="text/css">
	.st0{fill:#232C61;}
	.st1{fill:#FFFFFF;}
</style>
<g>
	<g id="surface1_00000109007691153067901210000014375762632516263842_">
		<path class="st0" d="M16,1C7.7,1,1,7.7,1,16s6.7,15,15,15s15-6.7,15-15l0,0C31,7.7,24.3,1,16,1"/>
		<path class="st1" d="M12.5,23.5l-6-11c-0.1-0.3,0-0.6,0.1-0.7c0.1,0,0.1,0,0.3,0h2.1c0.3,0,0.7,0.1,0.8,0.4l4.7,8.6
			c0.1,0.3,0.1,0.6,0,1l-1.1,1.8c-0.1,0.3-0.4,0.3-0.7,0.1C12.7,23.6,12.5,23.6,12.5,23.5"/>
		<path class="st1" d="M21,18.4l-3.2-5.8c-0.1-0.3,0-0.6,0.3-0.7c0.1,0,0.1,0,0.3,0h6.8c0.3,0,0.6,0.3,0.6,0.6c0,0.1,0,0.1-0.1,0.3
			L22,18.4c-0.1,0.3-0.4,0.4-0.7,0.3C21.1,18.5,21,18.5,21,18.4"/>
		<path class="st1" d="M18.1,23.2l-5.8-10.7c-0.1-0.3,0-0.6,0.3-0.7c0.1,0,0.1,0,0.3,0h1.9c0.3,0,0.7,0.1,0.8,0.4l4.6,8.3
			c0.1,0.3,0.1,0.6,0,1l-1.1,1.8c-0.1,0.3-0.4,0.4-0.7,0.3C18.2,23.4,18.1,23.4,18.1,23.2"/>
	</g>
</g>
</svg>
